<svg xmlns="http://www.w3.org/2000/svg" width="405" height="80" viewBox="0 0 405 80">
    <path fill="#2A3344" fill-rule="evenodd" d="M403.467 24.368l.642-.15a44.267 44.267 0 0 1-.3-3.695c-1.692-.333-2.897-.5-3.617-.5-1.373 0-2.473.438-3.297 1.31-.824.874-1.234 2.035-1.234 3.482 0 2.062.819 3.543 2.465 4.442.962.516 1.928 1.032 2.906 1.546.805.466 1.331.874 1.574 1.223.38.549.574 1.183.574 1.897 0 .932-.307 1.692-.918 2.283-.608.59-1.41.886-2.4.886-2.302 0-3.623-1.566-3.958-4.7l-.66.15c.162 1.331.248 2.704.248 4.118 1.112.916 2.581 1.373 4.41 1.373 1.556 0 2.793-.445 3.713-1.335.923-.888 1.385-2.046 1.385-3.477 0-1.943-.808-3.39-2.424-4.337-.884-.465-1.757-.928-2.618-1.384-.861-.456-1.444-.892-1.75-1.307-.426-.6-.639-1.315-.639-2.144 0-.948.243-1.704.732-2.27.492-.564 1.15-.847 1.976-.847 1.62 0 2.687 1.145 3.19 3.436zm-30.654 10.03c-1.353-1.687-2.031-3.903-2.031-6.644 0-2.16.547-3.826 1.643-4.997 1.097-1.174 2.658-1.76 4.68-1.76 1.737 0 3.14.4 4.214 1.2 1.072.798 1.61 1.813 1.61 3.044l.708-.026a59.087 59.087 0 0 1-.23-4.324c-2.434-.599-4.466-.9-6.095-.9-2.785 0-4.946.787-6.485 2.359-1.537 1.573-2.304 3.757-2.304 6.55 0 2.894.799 5.14 2.396 6.738 1.6 1.595 3.881 2.395 6.849 2.395 1.614 0 3.066-.225 4.36-.673a58.421 58.421 0 0 1 1.805-3.47l-.594-.5c-.624 1.246-1.346 2.148-2.168 2.704-.823.559-1.85.836-3.082.836-2.163 0-3.922-.844-5.276-2.533zm-21.664 3.28h6.566v-.909l-2.215-.449V21.737l2.215-.45v-.909h-6.566v.91l2.221.449V36.32l-2.22.45v.908zm-17.753-11.485c-.426-.6-.64-1.315-.64-2.144 0-.948.245-1.704.734-2.27.49-.564 1.148-.847 1.976-.847 1.622 0 2.684 1.145 3.189 3.436l.642-.15a43.045 43.045 0 0 1-.297-3.695c-1.695-.333-2.9-.5-3.619-.5-1.376 0-2.474.438-3.298 1.31-.824.874-1.236 2.035-1.236 3.482 0 2.062.822 3.543 2.468 4.442.96.516 1.926 1.032 2.903 1.546.806.466 1.333.874 1.577 1.223.381.549.572 1.183.572 1.897 0 .932-.305 1.692-.916 2.283-.61.59-1.412.886-2.403.886-2.3 0-3.622-1.566-3.957-4.7l-.663.15a32.75 32.75 0 0 1 .252 4.118c1.111.916 2.582 1.373 4.41 1.373 1.555 0 2.791-.445 3.714-1.335.922-.888 1.382-2.046 1.382-3.477 0-1.943-.807-3.39-2.424-4.337-.884-.465-1.757-.928-2.616-1.384-.86-.456-1.444-.892-1.75-1.307zm-21.363 0c-.427-.6-.64-1.315-.64-2.144 0-.948.245-1.704.734-2.27.49-.564 1.149-.847 1.976-.847 1.62 0 2.685 1.145 3.191 3.436l.642-.15a42.752 42.752 0 0 1-.299-3.695c-1.694-.333-2.9-.5-3.618-.5-1.375 0-2.474.438-3.3 1.31-.823.874-1.235 2.035-1.235 3.482 0 2.062.822 3.543 2.468 4.442.96.516 1.928 1.032 2.904 1.546.808.466 1.333.874 1.577 1.223.38.549.57 1.183.57 1.897 0 .932-.306 1.692-.915 2.283-.61.59-1.41.886-2.401.886-2.304 0-3.622-1.566-3.959-4.7l-.662.15c.168 1.331.252 2.704.252 4.118 1.11.916 2.581 1.373 4.41 1.373 1.553 0 2.791-.445 3.713-1.335.922-.888 1.383-2.046 1.383-3.477 0-1.943-.81-3.39-2.422-4.337-.885-.465-1.76-.928-2.619-1.384-.863-.456-1.445-.892-1.75-1.307zm-19.459 11.485h6.372v-.909l-1.891-.475-6.196-16.271h-1.114l-5.808 16.27-1.845.476v.909h5.72v-.909l-2.53-.475 1.732-5.203h5.903l1.936 5.203-2.279.475v.909zm-.09-7.724h-5.036l2.438-7.104 2.598 7.104zm-20.242 7.724a55.42 55.42 0 0 1 1.099-4.912h-.825a35.31 35.31 0 0 1-1.282 3.42h-5.815v-14.45l2.2-.448v-.91h-6.52v.91l2.203.449V36.32l-2.204.45v.908h11.144zm-32.9-3.28c-1.355-1.687-2.032-3.903-2.032-6.644 0-2.16.548-3.826 1.644-4.997 1.095-1.174 2.657-1.76 4.681-1.76 1.735 0 3.139.4 4.213 1.2 1.072.798 1.608 1.813 1.608 3.044l.71-.026a59.948 59.948 0 0 1-.23-4.324c-2.435-.599-4.467-.9-6.094-.9-2.788 0-4.947.787-6.485 2.359-1.538 1.573-2.305 3.757-2.305 6.55 0 2.894.798 5.14 2.397 6.738 1.598 1.595 3.881 2.395 6.849 2.395 1.613 0 3.066-.225 4.359-.673a59.763 59.763 0 0 1 1.804-3.47l-.593-.5c-.624 1.246-1.347 2.148-2.17 2.704-.821.559-1.849.836-3.082.836-2.161 0-3.92-.844-5.274-2.533zm-10.753 9.235l-.706-.281c-4.499 9.354-9.874 13.751-17.107 13.751-5.23 0-9.81-2.164-13.28-6.192 3.19-3.332 5.08-7.699 5.08-12.682 0-7.53-3.81-11.8-11.72-15.342.928-8.433 4.21-13.438 8.585-17.016a38.675 38.675 0 0 0 3.733-2.24 12.22 12.22 0 0 1 4.606-.918c5.73 0 10.316 3.322 10.316 9.775 0 5.986-4.232 10.757-9.082 10.757-2.999 0-4.937-1.871-4.937-4.864 0-1.123.263-2.151.704-3.182l-2.733 1.965c-.707.468-1.234 1.59-1.234 3.275 0 3.46 2.292 5.798 5.554 5.798 2.734 0 6.085-1.59 9.083-4.958 3.527-3.926 5.201-6.969 5.201-11.74 0-5.892-3.703-9.539-9.522-9.539-2.059 0-4.205.494-6.343 1.441l-.01-.014c-.02.016-.04.028-.059.044-1.784.798-3.562 1.913-5.277 3.336-1.672.773-3.163 1.152-4.426 1.152-4.402 0-8.903-4.441-14.455-4.441-7.56 0-12.92 3.537-12.92 9.701 0 7.704 5.456 11.147 14.931 14.864 1.132.441 2.202.868 3.23 1.293a35.278 35.278 0 0 0-.596 6.344c0 .912.042 1.81.118 2.688-1.864-2.21-5.265-3.798-9.452-3.798-7.561 0-14.07 5.892-14.07 12.418 0 7.162 7.275 12.69 18.377 12.69 5.351 0 10.182-1.468 13.98-4.016 3.854 3.055 8.741 4.803 14.238 4.803 9.259 0 15.079-4.489 20.193-14.872zm-42.118-1.36c1.351 4.33 3.73 8.01 6.883 10.763-2.807 1.958-6.385 3.143-10.304 3.143-9.954 0-17.135-7.073-17.135-14.326 0-4.62 3.447-7.974 8.137-7.974 4.978 0 8.998 3.716 8.998 7.974 0 1.906-.863 3.357-2.585 4.715l2.106-.545c1.498-.402 3.153-1.917 3.9-3.75zm.897-20.807c-.166-.061-.322-.126-.49-.187-10.815-3.987-17.229-4.262-17.229-10.516 0-4.26 3.636-7.614 7.274-7.614 4.213 0 8.424 5.077 14.454 5.077 1.731 0 3.676-.45 5.8-1.316-.44.452-.875.919-1.301 1.413-3.869 4.52-6.728 8.053-8.508 13.143zm9.31 28.433c-3.582-4.715-5.805-11.614-6.065-20.332 5.675 2.927 8.804 6.292 8.804 12.56 0 2.865-1.008 5.537-2.74 7.772zm-48.156-11.73l.16-.573c-.669-.183-1.537-.971-2.602-2.367-.867-1.147-2.13-3.082-3.789-5.805 1.895-1.262 2.842-2.874 2.842-4.836 0-2.805-1.706-4.21-5.119-4.21h-6.445v.922l2.201.45v14.574l-2.2.448v.91h6.506v-.91l-2.196-.448v-6.173h2.444c2.239 3.657 3.783 5.924 4.637 6.801.501.514 1.69.918 3.561 1.217zm-6.395-9.76c-.517.534-1.363.8-2.535.8-.198 0-.767-.018-1.712-.052V21.32h1.164c2.574 0 3.86 1.44 3.86 4.319 0 1.315-.259 2.239-.777 2.771zm-19.566 9.269c.32-1.76.618-3.173.893-4.238h-.687c-.153.568-.504 1.482-1.054 2.745h-6.204V29.11h4.302l.435 2.013h.595v-4.959h-.595l-.435 1.777h-4.302v-6.329h5.038c.32.988.534 1.789.641 2.405h.664c-.184-1.859-.291-3.073-.32-3.638h-10.343v.91l2.205.449V36.32l-2.205.45v.908h11.372zm-27.828.097h6.32v-.913l-2.021-.479-1.319-14.64 2.253-.45v-.915H95.3l-4.96 13.086-5.12-13.086h-4.664v.914l2.434.451-1.296 14.64-2.003.479v.913h5.256v-.913l-2.07-.479 1.183-13.498 5.825 14.765 5.825-15.09 1.25 13.823-2.228.479v.913zm-31.32 0h6.32v-.913l-2.021-.479-1.32-14.64 2.254-.45v-.915H63.98l-4.96 13.086-5.12-13.086h-4.665v.914l2.436.451-1.297 14.64-2.002.479v.913h5.256v-.913l-2.071-.479 1.184-13.498 5.824 14.765 5.826-15.09 1.25 13.823-2.23.479v.913zm-27.187-16.04l2.05-.448v-.909h-6.15v.91l2.265.447c.122 2.578.183 4.848.183 6.808 0 2.762-.168 4.533-.502 5.313-.835 1.963-2.279 2.944-4.329 2.944-2.11 0-3.614-.93-4.51-2.793-.457-.947-.684-2.744-.684-5.389 0-1.194.083-3.49.25-6.883l2.155-.448v-.909h-6.467v.91l2.162.447c-.118 4.308-.176 6.828-.176 7.56 0 3.11.47 5.272 1.41 6.486 1.154 1.48 2.992 2.22 5.512 2.22 2.641 0 4.554-.924 5.738-2.77.774-1.197 1.161-3.468 1.161-6.81l-.068-6.686zm-33.26 4.458c-.426-.6-.638-1.315-.638-2.144 0-.948.245-1.704.735-2.27.487-.564 1.145-.847 1.973-.847 1.622 0 2.685 1.145 3.19 3.436l.644-.15a42.46 42.46 0 0 1-.298-3.695c-1.695-.333-2.902-.5-3.62-.5-1.374 0-2.473.438-3.298 1.31-.824.874-1.237 2.035-1.237 3.482 0 2.062.823 3.543 2.47 4.442.96.516 1.927 1.032 2.901 1.546.81.466 1.334.874 1.578 1.223.382.549.572 1.183.572 1.897 0 .932-.306 1.692-.915 2.283-.61.59-1.41.886-2.402.886-2.302 0-3.622-1.566-3.957-4.7l-.664.15c.168 1.331.252 2.704.252 4.118 1.111.916 2.581 1.373 4.41 1.373 1.555 0 2.792-.445 3.714-1.335.922-.888 1.383-2.046 1.383-3.477 0-1.943-.808-3.39-2.424-4.337-.885-.465-1.757-.928-2.619-1.384-.86-.456-1.443-.892-1.75-1.307zm136.75 40.41h-5.24v.702l1.76.34V78.7l-1.76.34v.702h5.24v-.702l-1.775-.34v-5.481h7.183v5.48l-1.767.341v.702h5.24v-.702l-1.768-.34V67.646l1.767-.34v-.703h-5.239v.702l1.767.342v4.703h-7.183v-4.703l1.776-.342v-.702zm30.53 1.529c-1.188 1.19-1.782 2.872-1.782 5.04 0 2.106.591 3.77 1.774 4.994 1.181 1.223 2.807 1.834 4.877 1.834 2.047 0 3.673-.592 4.879-1.777 1.207-1.185 1.809-2.793 1.809-4.824 0-2.206-.578-3.933-1.735-5.182-1.158-1.249-2.76-1.872-4.806-1.872-2.156 0-3.827.596-5.016 1.787zm.085 4.379c0-1.69.414-3.025 1.242-4.009.828-.982 1.93-1.473 3.304-1.473 1.484 0 2.692.617 3.625 1.853.933 1.235 1.398 2.892 1.398 4.973 0 1.676-.407 2.996-1.223 3.96-.817.965-1.917 1.447-3.303 1.447-1.521 0-2.743-.609-3.663-1.824-.92-1.217-1.38-2.859-1.38-4.927zm32.798 6.168l-1.618.361v.702h4.246v-.702l-1.672-.361.955-10.177 4.707 11.145 4.706-11.391 1.012 10.423-1.803.361v.702h5.12v-.702l-1.64-.361-1.07-11.033 1.82-.34v-.703h-3.77l-4.008 9.884-4.135-9.884h-3.77v.702l1.968.34-1.048 11.034zm43.328-12.076h-8.31v.702l1.76.34V78.7l-1.76.34v.702h9.137c.258-1.337.496-2.41.718-3.218h-.552c-.124.431-.406 1.128-.848 2.09h-4.99v-5.377h3.474l.35 1.528h.485V71h-.485l-.35 1.35h-3.474v-4.804h4.052c.258.747.43 1.357.516 1.826h.535c-.147-1.416-.233-2.34-.258-2.769z"/>
</svg>
